<?xml version="1.0" encoding="UTF-8"?>
<svg xmlns="http://www.w3.org/2000/svg" version="1.1" viewBox="0 0 600 600">
  <defs>
    <style>
      .cls-1 {
        fill: #6f9c76;
      }
    </style>
  </defs>
  <!-- Generator: Adobe Illustrator 28.6.0, SVG Export Plug-In . SVG Version: 1.2.0 Build 709)  -->
  <g>
    <g id="Capa_1">
      <path id="COBOY" class="cls-1" d="M435.7,120.3l4.3,1,9.6,5.3,3.3.7,3.3-.7,2.7-1.7,4.6-4.3,2-2.3,1.7-2.7,2-4.6,3-6,4,1,1,3.3,1,.7,1.7-.3,1.7-1,1.7-1.7,1-1.3.3-1.3.3-1.3.7-1.3,1-1.3,3.6-1,13.6.3,4.6,1,3.3,1.3,3.3,1.7,6.6.3,5,1-.3.7-1,4.3-2,3.3-6.3,16.2-3.3,6-2,7.3-3.3,4.3-3.6,1.7-1.3,3-4,32.1-1.7,6-1.7,2.7-2,2.3-3,1.3h-2.3l-1.7.7-1.7,1.3-1.7,2-1.7,2-1.3,1-1.3-.3-1-.7-.7-1h-1.7l-1.3,1-1.7,1.7-1,1.7v2.3l-1.3,4-4.3,4-5.6,2.7-7,11.6-3.3,10.6v1.7l.3,1.3,2.7,1.3,1,1,.7,4,1.3,2.3.3,2.3,1.3,2,5,5.3-.3,3.3-2.7,4.3-1.3,8.6-3.6,12.3-.7,1.3-4,1-2.7,1-1.7,1.3-1,1.3v3.3l16.2,8.6,6.6,5,1.3,4,3.3,2.7,4,5.3,3.6,3.3-2.3,2.3-1.3.3-1,1.3-1,1.7-.7,3.3-.7,2-.7,2-2.3,2-1,2-.3,1.3-2.3,11.6-1.3,1-1.3-.3-2.3-1.3-3.6-2.7-1-1.3-1.7-2.7-1-1.7-1-.7h-1.7l-2,1-4,4.6-18.6,19.9-3.6,6.3-2.3,3.6-7.3,4-9.6,8.6h-3.3l-4.6-6.3-3-2.7-4.3-6-1.3-1.3-3.3-1.7-3.6,3.3-2,1-2.7,2.3-2.7,3-9.3,13.3-1.7,1.3.7,6-1.3,1.3-.3,1-.7,1.7-.7,3.6v2.3l.7,2.3,1.7,3,4.3,3.3,1.3,2.3-2.7,4.6-1,4-1,1.7-3,2.7-3.6,4.6-6.6-3-2.3.3-1,1.3-2.3,11.3-.7,7.6-2.7,7.3-.7,3.3,3.3,9.6-.7,3.3h-2.3l-1,1-.3.7.3,1-.3,1-.3,1-2,3.3-.7,1.3-1.3,1.3-2,1.3-7,.3-7-2.7h-3.6l-1.3-3-.7-5-1.3-1-1.7-.7h-3.3l-3,1-2-.3-1.3-1.3-.7-2-3.6-5.6-6.3-2.3-.3-1.3.7-2.7-1.3-1.7-2.3-3-2.7-4-1.3-1-5-1.7h-13.9l-3.6-5.3v-2.3l5.3-9.9-.7-5.3,6.6-5,.3-2.3-2.7-4.6-.3-3.6.7-2.7-.7-1.7-4-7.3-1.3-4.6.7-4.3-2.7-4.3-.7-1.3-3-2.3-4.3-3.3-1-2-.7-2.3.3-2,.7-2.3,1-2-1.3-1.7v-1.7l-1.7-1-7-6.3-1.7-3.6-.3-1.7h-1l-1.3.3h-2l-2.7-1-4-3.6-3.3.7-8.9-4.3v-8.3l-1-1h-1l-1.3.3-1.7.7-3.6,3.3-9.3,9.6v3l-1.3,3.6-4.6,1.3-10.9,9.9-8-4.3-2.7-.3-2.7-1.3-1.7-1.7-1.7-2.7v-3.3l-8.3.3-2-.7-3-1.3-5.3-3.3h-4l-2,.3-1-1.3-.3-1.3.3-3v-1.3l-1-3.3-7.3-7-2.3-4.6-.3-2,.3-2,2-3.6,1.7-2,.7-2-.3-1.7-1.3-1.7-1-2.7.3-3-.3-2v-1.3l-1.3-1.7-.3-1.7v-3.3l-.3-.3-.7-.3-.7-.3-.7-.7-.3-.7v-1l-.7-1-1-1-1.3-.3-2.7,1.7-5,4.3-2.3,1.7-1.7,1.3-4.3,1-7.6-1.3-2.3-1-2.7-1-3-.3h-1l-2,1.7-4,1.7-9.3,1.7-2.7,1.3-.7-1-1.3-1-.7-1.3,2.3-4.6,1.7-10.6,1-2.3,2-2.7,2.3-2.3,2-.7.7-1.3-2.3-7.3v-3l1-.7,2.7-1.3,1-.3.7-1.7v-1.3l-.3-1-.3-1.3.3-7-.3-2.3-1-3-2.7-2.7-.7-1.7-.3-2.3.7-2.3,2.3-4,1.3-7.3,2.3-4.3,3-3.6,5-3.3.7,4,.3,1.3,1.3,5,1.7,3.3,2.7,8,6.3,9.9,3.6,3.6,2.3,2,2.3,1.3,1.3,1,1.3.7,1.7.7,1.7.3,2.3-.7,4.3-3.3,2.3-1,2.3-.3,1.7,1.3,1.7,2.3,2,5,1.7,3,1.7,3.3-.3,3-4,7.6-1,3.6v2.3l2,6,3,.7,1-.3,2-1.3,2.3-2,2.3-3.6,3.3-2.3,3.6,3.3,7.3,2,2.3,2.3,1.3,5.3,3,.3,2,.3,1.7,1.3,3,5.6,3.6,4.6,6,3.3h2l2-1,1.3-.3,3.3-1,3-.3,1.7.3,2,.7,1,1-.3,4.3,7.6-4.6,10.9-3,5.3-.7,3.6.3,3.3,1,3.3,2,3,2.7,1.7,1.7,1.7-1.3.3-1.7.3-1.7v-4l1.7-8.3,1.7-5,.3-4-.3-3.3-.7-3,.7-2.7,3.3-5.3,1-6,1.7-3.3,7.3-6,.7-1.7,5.3-9.3,2.7,2.7,7.6,3.6,7,6.6,2,3,.7,2v3l-.7,3.6-2.7,6.6-2.3,4-4,2-.3,3-.3.7-3.6,2.3-1.3.7.7,6,6.6,8.3,2.3,1.7,2-.3,2.3-6,3.3-3.3,2-4,.3-4,.7-.7,1-.3,5.6,2,4.3-.7,8.3-12.9,3-8.3,3-1.3,1-.3,2,.7,4,2.7,5.6,3,15.6,2.3h3l1.7-1.7,2.3-8.3,12.6-14.9,1.7-3.3,2.3-2.7,4.6-1.7,5-1.3,3.3-2,3-8.3,3-1.7,2-1,2.3-2,1.3-2,.3-1.7v-3.3l.7-3-2.3-5.3,3.3-9.6-.7-7,1-6.6-.7-2.3-1-2.7-1.7-1.7-1.7-1-5.3-5.3-1-3,1.7-2.7,3.3-1h1.7l3,3,6,4.3,2.7,3.6,2,3.6,3.3,8.6,3,1,4.3-1.3,6.3-6.3,3-1.7,2-1,1.3-2v-9.9l1-3,6.6-11.3,2.7-12.9.7-6.3-1.7-6v-2.7l.3-2,1.3-3.6-4.6-12.3h0Z"/>
    </g>
  </g>
</svg>